<?xml version="1.0" encoding="UTF-8" standalone="no"?>
<!-- Created with Inkscape (http://www.inkscape.org/) -->

<svg
   xmlns:dc="http://purl.org/dc/elements/1.1/"
   xmlns:cc="http://creativecommons.org/ns#"
   xmlns:rdf="http://www.w3.org/1999/02/22-rdf-syntax-ns#"
   xmlns:svg="http://www.w3.org/2000/svg"
   xmlns="http://www.w3.org/2000/svg"
   xmlns:sodipodi="http://sodipodi.sourceforge.net/DTD/sodipodi-0.dtd"
   xmlns:inkscape="http://www.inkscape.org/namespaces/inkscape"
   width="118.87263mm"
   height="135.35858mm"
   viewBox="0 0 118.87263 135.35858"
   version="1.1"
   id="svg933"
   inkscape:version="0.92.4 (5da689c313, 2019-01-14)"
   sodipodi:docname="stadler_logo.svg">
  <defs
     id="defs927" />
  <sodipodi:namedview
     id="base"
     pagecolor="#ffffff"
     bordercolor="#666666"
     borderopacity="1.0"
     inkscape:pageopacity="0.0"
     inkscape:pageshadow="2"
     inkscape:zoom="0.49497475"
     inkscape:cx="-562.47275"
     inkscape:cy="535.75506"
     inkscape:document-units="mm"
     inkscape:current-layer="layer1"
     showgrid="false"
     fit-margin-top="0"
     fit-margin-left="0"
     fit-margin-right="0"
     fit-margin-bottom="0"
     inkscape:window-width="1920"
     inkscape:window-height="1017"
     inkscape:window-x="-8"
     inkscape:window-y="-8"
     inkscape:window-maximized="1" />
  <metadata
     id="metadata930">
    <rdf:RDF>
      <cc:Work
         rdf:about="">
        <dc:format>image/svg+xml</dc:format>
        <dc:type
           rdf:resource="http://purl.org/dc/dcmitype/StillImage" />
        <dc:title></dc:title>
      </cc:Work>
    </rdf:RDF>
  </metadata>
  <g
     inkscape:label="Capa 1"
     inkscape:groupmode="layer"
     id="layer1"
     transform="translate(1.227981,-31.261184)">
    <g
       id="g959"
       transform="matrix(0.37444218,0,0,0.37444218,128.91011,134.849)"
       style="fill:#cccccc;stroke-width:102.77845764">
      <path
         id="path943"
         transform="matrix(0.26458333,0,0,0.26458333,0,265.584)"
         d="m -657.35352,-2049.3711 c -96.46081,-0.1703 -189.33057,21.6824 -294.25,68.0996 -69.01038,30.599 -152.01888,79.752 -187.82618,111.002 l -13.0195,11.0683 9.7656,13.9961 c 5.5339,7.487 18.2292,25.7168 28.3203,40.3653 10.0911,14.3229 25.0651,35.8066 33.2031,47.5253 8.138,11.7188 22.4603,32.2266 31.9004,45.8985 9.4402,13.3463 26.041,37.1093 36.7832,52.7344 10.7422,15.6249 20.5085,28.3203 21.81058,28.3203 1.30209,0 16.60156,-10.7428 34.17969,-23.7637 80.07814,-59.8958 139.64777,-92.4473 198.89258,-109.0488 28.97136,-8.1382 36.13282,-8.7883 86.91406,-8.4629 50.78124,0 57.61786,0.651 84.31055,8.789 57.6172,17.9037 97.00588,40.0391 131.18555,74.2188 52.08332,51.4323 73.89257,109.0495 73.89257,193.3594 -0.32553,66.0807 -9.44011,101.2376 -43.94531,164.3886 -8.138,15.2995 -21.81054,40.6888 -30.59961,56.9649 -8.46353,15.9505 -18.22854,33.5287 -21.1582,39.0625 -5.53387,9.1146 -36.13216,65.7552 -66.08008,122.0703 -7.16149,13.3464 -18.55531,34.5065 -25.7168,46.5508 -6.83591,12.3698 -12.36914,24.0872 -12.36914,25.7148 0,5.5339 146.48438,221.35484 151.36719,222.98244 1.95311,0.65105 10.41534,-10.41601 18.87891,-24.08789 8.46353,-13.99739 24.08917,-38.73698 34.50586,-54.6875 102.86456,-161.45835 194.01107,-334.96155 229.81836,-437.82615 22.13544,-63.8021 36.13278,-163.4115 32.22656,-229.4922 -1.95315,-36.7838 -8.46421,-76.8229 -17.9043,-111.3281 -22.78647,-83.0079 -80.40364,-178.0606 -141.60156,-233.7246 -83.98439,-76.1719 -207.68295,-128.2546 -329.42774,-138.3457 -18.20881,-1.5259 -36.19352,-2.3123 -54.05664,-2.3438 z"
         style="fill:#cccccc;fill-opacity:1;stroke:none;stroke-width:388.45407104;stroke-linejoin:round;stroke-miterlimit:4;stroke-dasharray:none"
         inkscape:connector-curvature="0" />
      <path
         id="path941"
         transform="matrix(0.26458333,0,0,0.26458333,0,265.584)"
         d="m -687.09961,-1714.5781 c -23.6047,-0.1101 -45.31714,1.291 -56.82227,4.4648 -32.55208,9.1146 -117.18752,63.1517 -283.20312,180.9903 -67.3828,47.8515 -72.916,52.0833 -168.6191,122.0703 -29.2969,21.1588 -56.3152,41.0149 -60.5469,43.6191 -3.9063,2.6042 -17.2533,12.0436 -29.6231,21.1582 l -22.7851,16.2774 227.2129,0.9765 c 124.67445,0.3255 226.88864,1.6257 226.88864,2.9277 0,1.3021 -2.93035,13.3471 -6.18554,26.6934 -3.58073,13.6719 -9.44076,37.1107 -13.02149,52.4102 -3.58072,15.2995 -11.06709,45.8984 -16.27539,68.3593 -5.53387,22.461 -11.39255,47.8503 -13.3457,56.9649 -1.95311,8.789 -4.23239,18.8808 -5.20899,21.8105 -1.62757,5.5339 6.50978,5.8594 139.32227,5.8594 h 140.95117 l 27.34375,-49.8047 c 15.29949,-27.0182 46.55015,-83.334 69.66211,-124.3496 61.19792,-108.0729 67.38149,-121.7441 79.42578,-172.5254 8.46354,-35.4817 7.81378,-101.2376 -1.30078,-130.209 -20.83336,-65.7552 -69.66273,-112.6295 -144.20703,-138.3457 -16.6219,-5.7983 -55.16293,-9.1868 -89.66211,-9.3476 z"
         style="fill:#cccccc;fill-opacity:1;stroke:none;stroke-width:388.45407104;stroke-linejoin:round;stroke-miterlimit:4;stroke-dasharray:none"
         inkscape:connector-curvature="0" />
      <path
         id="path939"
         transform="matrix(0.26458333,0,0,0.26458333,0,265.584)"
         d="m -1261.5,-1269.3574 -2.9297,7.4863 c -1.9531,4.2318 -6.1836,21.4831 -10.0898,38.4102 -3.9063,16.9271 -10.4167,45.5748 -14.6485,63.4785 -15.9505,67.3828 -24.414,106.1185 -24.414,110.6758 0,3.9062 6.8346,4.8828 40.3632,4.8828 h 40.3653 l 1.9531,26.6933 c 1.3021,14.974 3.5814,40.03844 5.209,56.31448 1.6276,15.95053 3.9063,46.22461 4.8828,66.73243 0.9766,20.50781 2.6035,40.68945 3.5801,44.5957 l 1.3027,7.48828 h 203.4492 l 37.43558,55.98828 c 20.5078,30.59896 44.59571,66.4069 53.38477,79.42774 l 15.95117,24.08789 h 240.88477 c 198.24219,0 240.23568,-0.65169 238.93359,-4.23242 -0.97659,-2.60417 -15.62567,-24.73959 -32.55273,-49.80469 -55.98958,-82.35677 -129.23175,-191.08073 -166.01563,-246.09375 l -36.45898,-54.68754 h -331.05469 l 1.30273,-10.7421 c 1.62762,-9.7657 18.55402,-85.2865 36.78321,-160.1563 4.23175,-17.9037 8.78907,-38.086 9.76562,-44.9219 l 2.2793,-12.0429 -48.17773,-0.3262 c -26.69268,0 -98.63218,-0.6504 -159.83008,-1.627 z"
         style="fill:#cccccc;fill-opacity:1;stroke:none;stroke-width:388.45407104;stroke-linejoin:round;stroke-miterlimit:4;stroke-dasharray:none"
         inkscape:connector-curvature="0" />
    </g>
  </g>
</svg>
