<?xml version="1.0" encoding="UTF-8" standalone="no"?>
<!-- Created with Inkscape (http://www.inkscape.org/) -->

<svg
   xmlns:dc="http://purl.org/dc/elements/1.1/"
   xmlns:cc="http://creativecommons.org/ns#"
   xmlns:rdf="http://www.w3.org/1999/02/22-rdf-syntax-ns#"
   xmlns:svg="http://www.w3.org/2000/svg"
   xmlns="http://www.w3.org/2000/svg"
   xmlns:sodipodi="http://sodipodi.sourceforge.net/DTD/sodipodi-0.dtd"
   xmlns:inkscape="http://www.inkscape.org/namespaces/inkscape"
   width="10.3cm"
   height="3.1415999cm"
   viewBox="0 0 103 31.415999"
   version="1.1"
   id="svg8"
   inkscape:version="0.92.4 (5da689c313, 2019-01-14)"
   sodipodi:docname="stadler.svg">
  <defs
     id="defs2" />
  <sodipodi:namedview
     id="base"
     pagecolor="#000000"
     bordercolor="#666666"
     borderopacity="1.0"
     inkscape:pageopacity="1"
     inkscape:pageshadow="2"
     inkscape:zoom="2.6446708"
     inkscape:cx="214.75619"
     inkscape:cy="124.49813"
     inkscape:document-units="mm"
     inkscape:current-layer="layer1"
     showgrid="false"
     units="cm"
     showguides="true"
     inkscape:guide-bbox="true"
     inkscape:window-width="1920"
     inkscape:window-height="1017"
     inkscape:window-x="-8"
     inkscape:window-y="-8"
     inkscape:window-maximized="1"
     inkscape:snap-global="false" />
  <metadata
     id="metadata5">
    <rdf:RDF>
      <cc:Work
         rdf:about="">
        <dc:format>image/svg+xml</dc:format>
        <dc:type
           rdf:resource="http://purl.org/dc/dcmitype/StillImage" />
        <dc:title></dc:title>
      </cc:Work>
    </rdf:RDF>
  </metadata>
  <g
     inkscape:label="Capa 1"
     inkscape:groupmode="layer"
     id="layer1"
     transform="translate(0,-265.584)">
    <g
       id="g959"
       transform="matrix(0.00972967,0,0,0.00972967,21.047673,272.33362)"
       style="stroke-width:102.77845764;fill:#cccccc">
      <path
         id="path943"
         transform="matrix(0.26458333,0,0,0.26458333,0,265.584)"
         d="m -657.35352,-2049.3711 c -96.46081,-0.1703 -189.33057,21.6824 -294.25,68.0996 -69.01038,30.599 -152.01888,79.752 -187.82618,111.002 l -13.0195,11.0683 9.7656,13.9961 c 5.5339,7.487 18.2292,25.7168 28.3203,40.3653 10.0911,14.3229 25.0651,35.8066 33.2031,47.5253 8.138,11.7188 22.4603,32.2266 31.9004,45.8985 9.4402,13.3463 26.041,37.1093 36.7832,52.7344 10.7422,15.6249 20.5085,28.3203 21.81058,28.3203 1.30209,0 16.60156,-10.7428 34.17969,-23.7637 80.07814,-59.8958 139.64777,-92.4473 198.89258,-109.0488 28.97136,-8.1382 36.13282,-8.7883 86.91406,-8.4629 50.78124,0 57.61786,0.651 84.31055,8.789 57.6172,17.9037 97.00588,40.0391 131.18555,74.2188 52.08332,51.4323 73.89257,109.0495 73.89257,193.3594 -0.32553,66.0807 -9.44011,101.2376 -43.94531,164.3886 -8.138,15.2995 -21.81054,40.6888 -30.59961,56.9649 -8.46353,15.9505 -18.22854,33.5287 -21.1582,39.0625 -5.53387,9.1146 -36.13216,65.7552 -66.08008,122.0703 -7.16149,13.3464 -18.55531,34.5065 -25.7168,46.5508 -6.83591,12.3698 -12.36914,24.0872 -12.36914,25.7148 0,5.5339 146.48438,221.35484 151.36719,222.98244 1.95311,0.65105 10.41534,-10.41601 18.87891,-24.08789 8.46353,-13.99739 24.08917,-38.73698 34.50586,-54.6875 102.86456,-161.45835 194.01107,-334.96155 229.81836,-437.82615 22.13544,-63.8021 36.13278,-163.4115 32.22656,-229.4922 -1.95315,-36.7838 -8.46421,-76.8229 -17.9043,-111.3281 -22.78647,-83.0079 -80.40364,-178.0606 -141.60156,-233.7246 -83.98439,-76.1719 -207.68295,-128.2546 -329.42774,-138.3457 -18.20881,-1.5259 -36.19352,-2.3123 -54.05664,-2.3438 z"
         style="fill:#cccccc;fill-opacity:1;stroke:none;stroke-width:388.45407104;stroke-linejoin:round;stroke-miterlimit:4;stroke-dasharray:none"
         inkscape:connector-curvature="0" />
      <path
         id="path941"
         transform="matrix(0.26458333,0,0,0.26458333,0,265.584)"
         d="m -687.09961,-1714.5781 c -23.6047,-0.1101 -45.31714,1.291 -56.82227,4.4648 -32.55208,9.1146 -117.18752,63.1517 -283.20312,180.9903 -67.3828,47.8515 -72.916,52.0833 -168.6191,122.0703 -29.2969,21.1588 -56.3152,41.0149 -60.5469,43.6191 -3.9063,2.6042 -17.2533,12.0436 -29.6231,21.1582 l -22.7851,16.2774 227.2129,0.9765 c 124.67445,0.3255 226.88864,1.6257 226.88864,2.9277 0,1.3021 -2.93035,13.3471 -6.18554,26.6934 -3.58073,13.6719 -9.44076,37.1107 -13.02149,52.4102 -3.58072,15.2995 -11.06709,45.8984 -16.27539,68.3593 -5.53387,22.461 -11.39255,47.8503 -13.3457,56.9649 -1.95311,8.789 -4.23239,18.8808 -5.20899,21.8105 -1.62757,5.5339 6.50978,5.8594 139.32227,5.8594 h 140.95117 l 27.34375,-49.8047 c 15.29949,-27.0182 46.55015,-83.334 69.66211,-124.3496 61.19792,-108.0729 67.38149,-121.7441 79.42578,-172.5254 8.46354,-35.4817 7.81378,-101.2376 -1.30078,-130.209 -20.83336,-65.7552 -69.66273,-112.6295 -144.20703,-138.3457 -16.6219,-5.7983 -55.16293,-9.1868 -89.66211,-9.3476 z"
         style="fill:#cccccc;fill-opacity:1;stroke:none;stroke-width:388.45407104;stroke-linejoin:round;stroke-miterlimit:4;stroke-dasharray:none"
         inkscape:connector-curvature="0" />
      <path
         id="path939"
         transform="matrix(0.26458333,0,0,0.26458333,0,265.584)"
         d="m -1261.5,-1269.3574 -2.9297,7.4863 c -1.9531,4.2318 -6.1836,21.4831 -10.0898,38.4102 -3.9063,16.9271 -10.4167,45.5748 -14.6485,63.4785 -15.9505,67.3828 -24.414,106.1185 -24.414,110.6758 0,3.9062 6.8346,4.8828 40.3632,4.8828 h 40.3653 l 1.9531,26.6933 c 1.3021,14.974 3.5814,40.03844 5.209,56.31448 1.6276,15.95053 3.9063,46.22461 4.8828,66.73243 0.9766,20.50781 2.6035,40.68945 3.5801,44.5957 l 1.3027,7.48828 h 203.4492 l 37.43558,55.98828 c 20.5078,30.59896 44.59571,66.4069 53.38477,79.42774 l 15.95117,24.08789 h 240.88477 c 198.24219,0 240.23568,-0.65169 238.93359,-4.23242 -0.97659,-2.60417 -15.62567,-24.73959 -32.55273,-49.80469 -55.98958,-82.35677 -129.23175,-191.08073 -166.01563,-246.09375 l -36.45898,-54.68754 h -331.05469 l 1.30273,-10.7421 c 1.62762,-9.7657 18.55402,-85.2865 36.78321,-160.1563 4.23175,-17.9037 8.78907,-38.086 9.76562,-44.9219 l 2.2793,-12.0429 -48.17773,-0.3262 c -26.69268,0 -98.63218,-0.6504 -159.83008,-1.627 z"
         style="fill:#cccccc;fill-opacity:1;stroke:none;stroke-width:388.45407104;stroke-linejoin:round;stroke-miterlimit:4;stroke-dasharray:none"
         inkscape:connector-curvature="0" />
    </g>
    <g
       id="g954"
       transform="matrix(0.05235209,0,0,0.05235209,46.539042,250.87779)"
       style="stroke-width:19.10143471;fill:#cccccc">
      <path
         id="path871"
         transform="matrix(0.26458333,0,0,0.26458333,0,265.584)"
         d="m -913.76367,363.42578 v 228.51563 h 70.96484 c 78.77586,0 97.00457,-2.92968 117.83789,-19.53125 16.60158,-13.02082 28.64521,-38.73701 32.87696,-70.3125 8.46353,-58.26826 -13.99738,-110.02541 -55.66407,-129.55664 -13.34634,-6.1849 -21.80875,-6.83595 -90.16797,-7.8125 z m 100.08398,46.68164 c 14.11432,0.0916 27.35743,1.00783 32.72852,2.47266 26.36719,7.16148 42.96942,40.03971 38.41211,77.47461 -2.92967,25.39064 -9.4401,38.08594 -23.4375,47.85156 -12.04426,8.13812 -14.64926,8.46289 -54.03711,8.46289 h -41.66602 v -67.70898 -67.38282 l 33.85352,-0.97656 c 4.63863,-0.16275 9.44171,-0.22388 14.14648,-0.19336 z"
         style="fill:#cccccc;fill-opacity:1;stroke:none;stroke-width:72.1944046;stroke-linejoin:round;stroke-miterlimit:4;stroke-dasharray:none"
         inkscape:connector-curvature="0" />
      <path
         id="path869"
         transform="matrix(0.26458333,0,0,0.26458333,0,265.584)"
         d="m -22.925781,364.0293 c -27.092854,-0.094 -50.404136,0.61718 -51.970703,2.32617 -1.302085,0.97655 -2.277344,52.41018 -2.277344,113.93359 v 111.65235 h 52.082031 v -91.14453 h 22.4609376 c 20.5077924,0 23.4388104,0.97591 31.9023434,9.43945 5.208341,5.20834 16.601561,25.71546 25.390625,45.57226 l 15.949219,36.13282 h 27.019531 c 16.601571,0 27.017581,-1.3014 27.017581,-3.58008 0,-1.62758 -8.78904,-22.46159 -19.53125,-46.22461 -19.205712,-41.99218 -30.272783,-57.61719 -41.666018,-57.61719 -2.929701,-0.32553 1.9e-5,-2.27864 6.835937,-4.88281 33.203151,-11.71877 47.199841,-47.85091 31.900391,-81.70508 -7.161487,-15.95051 -19.205741,-25.06447 -40.039062,-29.94726 -9.155275,-2.38036 -50.240551,-3.83421 -85.074219,-3.95508 z m 41.910156,45.77343 c 14.598363,0.0599 19.176594,1.59666 25.259766,6.35743 6.510425,5.2083 8.789062,10.09182 8.789062,17.90429 0,17.2526 -8.462228,21.15821 -46.2226561,21.15821 H -25.091797 v -20.50782 c 0,-11.39323 0.652314,-21.48438 1.628906,-22.46093 0.976555,-0.97656 14.6471434,-1.95193 30.5976566,-2.27735 4.5776334,-0.12207 8.4807564,-0.18765 11.8496094,-0.17383 z"
         style="fill:#cccccc;fill-opacity:1;stroke:none;stroke-width:72.1944046;stroke-linejoin:round;stroke-miterlimit:4;stroke-dasharray:none"
         inkscape:connector-curvature="0" />
      <path
         id="path867"
         transform="matrix(0.26458333,0,0,0.26458333,0,265.584)"
         d="m -1584.3359,364.07812 -60.8731,0.32422 c -72.2656,0.32553 -85.6107,2.93102 -102.8633,22.13672 -27.0182,29.94792 -23.4375,73.24221 7.8125,98.63282 15.625,12.69531 29.2969,15.29958 77.1485,15.625 35.1562,0 40.3633,0.6504 46.2226,6.50976 8.7891,8.78907 8.1387,21.4837 -1.6269,30.92383 -7.8125,8.138 -7.8125,8.13867 -78.125,8.13867 h -69.9864 v 45.89844 l 79.1016,-0.97656 c 77.4739,-0.97656 79.4258,-1.30145 95.0508,-9.43946 47.526,-24.41408 48.5039,-94.40236 1.6289,-118.8164 -13.3463,-6.83596 -19.8574,-7.81187 -60.8731,-8.46289 -51.1067,-0.97656 -59.5703,-4.23179 -59.5703,-22.46094 0,-16.92711 8.1387,-19.20508 70.6387,-19.20508 h 56.3145 v -24.41406 z"
         style="fill:#cccccc;fill-opacity:1;stroke:none;stroke-width:72.1944046;stroke-linejoin:round;stroke-miterlimit:4;stroke-dasharray:none"
         inkscape:connector-curvature="0" />
      <path
         id="path865"
         transform="matrix(0.26458333,0,0,0.26458333,0,265.584)"
         d="m -1177.4355,364.07812 -46.2227,0.32422 c -53.0599,0.32553 -63.8021,2.60415 -76.1719,15.625 -4.8828,5.20831 -33.5286,54.68815 -63.4765,109.70118 l -55.0137,100.58593 25.0644,0.97657 c 13.6719,0.65106 26.6941,0.32616 28.9727,-0.6504 1.9531,-0.65105 9.4394,-11.71874 16.2754,-24.41406 l 12.3691,-23.11328 h 109.375 v 48.82813 h 48.8282 V 478.00977 Z m -63.8008,45.57227 h 14.9726 v 87.89063 h -84.9609 l 17.2539,-32.87696 c 9.4401,-18.22919 21.8099,-37.76042 27.3437,-43.94531 8.7891,-9.44009 12.3698,-11.06836 25.3907,-11.06836 z"
         style="fill:#cccccc;fill-opacity:1;stroke:none;stroke-width:72.1944046;stroke-linejoin:round;stroke-miterlimit:4;stroke-dasharray:none"
         inkscape:connector-curvature="0" />
      <path
         id="path863"
         transform="matrix(0.26458333,0,0,0.26458333,0,265.584)"
         d="m -1041.6934,364.07812 c -47.2005,10e-6 -86.914,0.97526 -87.8906,2.27735 -1.3021,0.97655 -2.2773,52.41018 -2.2773,113.93359 v 111.65235 h 175.78122 v -45.57227 h -123.69922 v -45.57226 h 110.67774 v -45.57422 h -110.67774 v -42.31641 h 123.69922 v -24.41406 -24.41407 z"
         style="fill:#cccccc;fill-opacity:1;stroke:none;stroke-width:72.1944046;stroke-linejoin:round;stroke-miterlimit:4;stroke-dasharray:none"
         inkscape:connector-curvature="0" />
      <path
         id="path861"
         transform="matrix(0.26458333,0,0,0.26458333,0,265.584)"
         d="m -682.64258,364.07812 v 48.82813 h 71.61328 v 179.03516 h 48.82813 l 0.65234,-88.86719 0.97656,-88.54102 36.78321,-0.97656 36.7832,-0.97656 -0.97656,-23.4375 -0.97656,-23.4375 -96.67969,-0.97656 z"
         style="fill:#cccccc;fill-opacity:1;stroke:none;stroke-width:72.1944046;stroke-linejoin:round;stroke-miterlimit:4;stroke-dasharray:none"
         inkscape:connector-curvature="0" />
      <path
         id="path859"
         transform="matrix(0.26458333,0,0,0.26458333,0,265.584)"
         d="m -464.54492,364.07812 v 227.86329 h 146.48437 v -45.57227 h -94.40039 v -83.98437 c 0,-45.89847 -0.97653,-86.91474 -1.95312,-91.14649 -1.95311,-6.51042 -3.90561,-7.16016 -26.04102,-7.16016 z"
         style="fill:#cccccc;fill-opacity:1;stroke:none;stroke-width:72.1944046;stroke-linejoin:round;stroke-miterlimit:4;stroke-dasharray:none"
         inkscape:connector-curvature="0" />
      <path
         id="path857"
         transform="matrix(0.26458333,0,0,0.26458333,0,265.584)"
         d="m -195.33789,364.07812 c -47.20052,0 -86.91407,0.97526 -87.89063,2.27735 -1.30208,0.97655 -2.27929,52.41018 -2.27929,113.93359 v 111.65235 h 175.78125 v -45.57227 h -123.69727 v -45.57226 l 54.6875,-0.65235 54.36133,-0.97656 0.97656,-22.13477 0.97656,-21.81054 h -111.00195 v -42.31641 h 123.69727 v -24.41406 -24.41407 z"
         style="fill:#cccccc;fill-opacity:1;stroke:none;stroke-width:72.1944046;stroke-linejoin:round;stroke-miterlimit:4;stroke-dasharray:none"
         inkscape:connector-curvature="0" />
      <path
         id="path855"
         transform="matrix(0.26458333,0,0,0.26458333,0,265.584)"
         d="m -1555.0391,367.33203 v 45.57422 h 61.8496 v 179.36133 l 25.3907,-0.97656 25.0644,-0.97657 0.9766,-88.86718 0.6504,-88.54102 h 80.7304 v -22.78711 -22.78711 z"
         style="fill:#cccccc;fill-opacity:1;stroke:none;stroke-width:72.1944046;stroke-linejoin:round;stroke-miterlimit:4;stroke-dasharray:none"
         inkscape:connector-curvature="0" />
    </g>
    <text
       xml:space="preserve"
       style="font-style:normal;font-weight:normal;font-size:3.72613859px;line-height:1.25;font-family:sans-serif;letter-spacing:0px;word-spacing:0px;fill:#cccccc;fill-opacity:1;stroke:none;stroke-width:0.27529916;"
       x="49.654213"
       y="272.79758"
       id="text965"><tspan
         sodipodi:role="line"
         id="tspan963"
         x="49.654213"
         y="272.79758"
         style="fill:#cccccc;fill-opacity:1;stroke-width:0.27529916;">permanent</tspan></text>
    <g
       id="g1003"
       transform="translate(-4.2673076,-0.27387079)"
       style="fill:#cccccc">
      <text
         id="text969"
         y="272.56207"
         x="79.751991"
         style="font-style:normal;font-weight:normal;font-size:1.66336107px;line-height:1.25;font-family:sans-serif;letter-spacing:0px;word-spacing:0px;fill:#cccccc;fill-opacity:1;stroke:none;stroke-width:0.26458332"
         xml:space="preserve"><tspan
           style="fill:#cccccc;fill-opacity:1;stroke-width:0.26458332"
           y="272.56207"
           x="79.751991"
           id="tspan967"
           sodipodi:role="line">DRY SAFE</tspan></text>
      <path
         inkscape:connector-curvature="0"
         id="path971"
         d="m 83.93495,269.34006 a 5.8455839,2.6174255 0 0 0 -5.845239,2.61734 5.8455839,2.6174255 0 0 0 5.845239,2.61733 5.8455839,2.6174255 0 0 0 5.845665,-2.61733 5.8455839,2.6174255 0 0 0 -5.845665,-2.61734 z m 0,0.40705 a 4.4350816,2.2102703 0 0 1 4.435449,2.21029 4.4350816,2.2102703 0 0 1 -4.435449,2.21028 4.4350816,2.2102703 0 0 1 -4.43502,-2.21028 4.4350816,2.2102703 0 0 1 4.43502,-2.21029 z"
         style="fill:#cccccc;fill-opacity:1;stroke:none;stroke-width:1;stroke-linejoin:round;stroke-miterlimit:4;stroke-dasharray:none" />
    </g>
    <path
       style="color:#000000;font-style:normal;font-variant:normal;font-weight:normal;font-stretch:normal;font-size:medium;line-height:normal;font-family:sans-serif;font-variant-ligatures:normal;font-variant-position:normal;font-variant-caps:normal;font-variant-numeric:normal;font-variant-alternates:normal;font-feature-settings:normal;text-indent:0;text-align:start;text-decoration:none;text-decoration-line:none;text-decoration-style:solid;text-decoration-color:#000000;letter-spacing:normal;word-spacing:normal;text-transform:none;writing-mode:lr-tb;direction:ltr;text-orientation:mixed;dominant-baseline:auto;baseline-shift:baseline;text-anchor:start;white-space:normal;shape-padding:0;clip-rule:nonzero;display:inline;overflow:visible;visibility:visible;opacity:1;isolation:auto;mix-blend-mode:normal;color-interpolation:sRGB;color-interpolation-filters:linearRGB;solid-color:#000000;solid-opacity:1;vector-effect:none;fill:#cccccc;fill-opacity:1;fill-rule:nonzero;stroke:none;stroke-width:0.24089497;stroke-linecap:butt;stroke-linejoin:round;stroke-miterlimit:4;stroke-dasharray:none;stroke-dashoffset:0;stroke-opacity:1;color-rendering:auto;image-rendering:auto;shape-rendering:auto;text-rendering:auto;enable-background:accumulate"
       d="m 93.332031,268.96289 c -0.896631,0 -1.677734,0.71232 -1.677734,1.63477 0,0.92042 0.757303,1.67773 1.677734,1.67773 0.296826,0 0.521485,0.22271 0.521485,0.51953 0,0.29684 -0.224657,0.52149 -0.521485,0.52149 H 91.78125 a 0.12045953,0.12045953 0 0 0 -0.121094,0.12109 v 0.91406 a 0.12045953,0.12045953 0 0 0 0.121094,0.1211 h 1.550781 c 0.920431,0 1.677735,-0.7573 1.677735,-1.67774 0,-0.92043 -0.757305,-1.67773 -1.677735,-1.67773 -0.296828,0 -0.521484,-0.22281 -0.521484,-0.51953 0,-0.15076 0.05085,-0.26413 0.138672,-0.34571 0.08782,-0.0816 0.217463,-0.13281 0.382812,-0.13281 h 1.558594 a 0.12045953,0.12045953 0 0 0 0.121094,-0.12109 v -0.91602 a 0.12045953,0.12045953 0 0 0 -0.121094,-0.11914 z m 0,0.24023 h 1.439453 v 0.67383 h -1.439453 c -0.215758,0 -0.40714,0.0693 -0.544922,0.19727 -0.137781,0.12798 -0.216796,0.31449 -0.216797,0.52344 0,0.42266 0.339162,0.76171 0.761719,0.76172 0.788394,0 1.435547,0.64715 1.435547,1.43554 0,0.7884 -0.647153,1.4375 -1.435547,1.4375 h -1.429687 v -0.67578 h 1.429687 c 0.422554,0 0.761719,-0.33916 0.761719,-0.76172 0,-0.42255 -0.339163,-0.76172 -0.761719,-0.76172 -0.788396,0 -1.4375,-0.64715 -1.4375,-1.43554 0,-0.78639 0.668136,-1.39454 1.4375,-1.39454 z"
       id="path985"
       inkscape:connector-curvature="0" />
    <path
       sodipodi:nodetypes="cssccssc"
       inkscape:connector-curvature="0"
       d="m 126.45089,262.23043 c 2.51999,0 4.56284,2.04285 4.56284,4.56284 0,2.51999 -2.04285,4.56284 -4.56284,4.56284 h -6.43749 m 6.43749,-9.12568 c -2.51999,0 -4.56284,-2.04285 -4.56284,-4.56284 0,-2.51999 2.04285,-4.38599 4.56284,-4.38599 h 6.47288"
       style="fill:none;fill-opacity:1;stroke:#000000;stroke-width:3.79999995;stroke-linejoin:round;stroke-miterlimit:4;stroke-dasharray:none"
       id="path996" />
    <text
       id="text1007"
       y="277.17087"
       x="21.701565"
       style="font-style:normal;font-weight:normal;font-size:4.11415958px;line-height:1.25;font-family:sans-serif;letter-spacing:0px;word-spacing:0px;fill:#cccccc;fill-opacity:1;stroke:none;stroke-width:0.30396739;"
       xml:space="preserve"><tspan
         style="fill:#cccccc;fill-opacity:1;stroke-width:0.30396739;"
         y="277.17087"
         x="21.701565"
         id="tspan1005"
         sodipodi:role="line">Lumocolor</tspan></text>
    <path
       style="color:#000000;font-style:normal;font-variant:normal;font-weight:normal;font-stretch:normal;font-size:medium;line-height:normal;font-family:sans-serif;font-variant-ligatures:normal;font-variant-position:normal;font-variant-caps:normal;font-variant-numeric:normal;font-variant-alternates:normal;font-feature-settings:normal;text-indent:0;text-align:start;text-decoration:none;text-decoration-line:none;text-decoration-style:solid;text-decoration-color:#000000;letter-spacing:normal;word-spacing:normal;text-transform:none;writing-mode:lr-tb;direction:ltr;text-orientation:mixed;dominant-baseline:auto;baseline-shift:baseline;text-anchor:start;white-space:normal;shape-padding:0;clip-rule:nonzero;display:inline;overflow:visible;visibility:visible;opacity:1;isolation:auto;mix-blend-mode:normal;color-interpolation:sRGB;color-interpolation-filters:linearRGB;solid-color:#000000;solid-opacity:1;vector-effect:none;fill:#cccccc;fill-opacity:1;fill-rule:nonzero;stroke:none;stroke-width:0.24089497;stroke-linecap:butt;stroke-linejoin:round;stroke-miterlimit:4;stroke-dasharray:none;stroke-dashoffset:0;stroke-opacity:1;color-rendering:auto;image-rendering:auto;shape-rendering:auto;text-rendering:auto;enable-background:accumulate"
       d="m 93.332031,278.98242 c -0.896631,0 -1.677734,0.71232 -1.677734,1.63477 0,0.92043 0.757303,1.67773 1.677734,1.67773 0.296826,0 0.521485,0.22466 0.521485,0.52149 0,0.29683 -0.224657,0.51953 -0.521485,0.51953 H 91.78125 a 0.12045953,0.12045953 0 0 0 -0.121094,0.12109 v 0.91602 a 0.12045953,0.12045953 0 0 0 0.121094,0.11914 h 1.550781 c 0.920431,0 1.677735,-0.75535 1.677735,-1.67578 0,-0.92043 -0.757305,-1.67774 -1.677735,-1.67774 -0.296828,0 -0.521484,-0.22476 -0.521484,-0.52148 0,-0.15076 0.05085,-0.26413 0.138672,-0.34571 0.08782,-0.0816 0.217463,-0.13281 0.382812,-0.13281 h 1.558594 a 0.12045953,0.12045953 0 0 0 0.121094,-0.12109 v -0.91406 a 0.12045953,0.12045953 0 0 0 -0.121094,-0.1211 z m 0,0.24024 h 1.439453 v 0.67578 h -1.439453 c -0.215758,0 -0.40714,0.0693 -0.544922,0.19726 -0.137781,0.12798 -0.216796,0.31254 -0.216797,0.52149 0,0.42266 0.339162,0.76172 0.761719,0.76172 0.788394,0 1.435547,0.6491 1.435547,1.4375 0,0.7884 -0.647153,1.43554 -1.435547,1.43554 h -1.429687 v -0.67383 h 1.429687 c 0.422554,0 0.761719,-0.33915 0.761719,-0.76171 0,-0.42256 -0.339163,-0.76172 -0.761719,-0.76172 -0.788396,0 -1.4375,-0.64911 -1.4375,-1.4375 0,-0.78639 0.668136,-1.39453 1.4375,-1.39453 z"
       id="path1011"
       inkscape:connector-curvature="0" />
    <path
       style="color:#000000;font-style:normal;font-variant:normal;font-weight:normal;font-stretch:normal;font-size:medium;line-height:normal;font-family:sans-serif;font-variant-ligatures:normal;font-variant-position:normal;font-variant-caps:normal;font-variant-numeric:normal;font-variant-alternates:normal;font-feature-settings:normal;text-indent:0;text-align:start;text-decoration:none;text-decoration-line:none;text-decoration-style:solid;text-decoration-color:#000000;letter-spacing:normal;word-spacing:normal;text-transform:none;writing-mode:lr-tb;direction:ltr;text-orientation:mixed;dominant-baseline:auto;baseline-shift:baseline;text-anchor:start;white-space:normal;shape-padding:0;clip-rule:nonzero;display:inline;overflow:visible;visibility:visible;opacity:1;isolation:auto;mix-blend-mode:normal;color-interpolation:sRGB;color-interpolation-filters:linearRGB;solid-color:#000000;solid-opacity:1;vector-effect:none;fill:#cccccc;fill-opacity:1;fill-rule:nonzero;stroke:none;stroke-width:0.24089497;stroke-linecap:butt;stroke-linejoin:round;stroke-miterlimit:4;stroke-dasharray:none;stroke-dashoffset:0;stroke-opacity:1;color-rendering:auto;image-rendering:auto;shape-rendering:auto;text-rendering:auto;enable-background:accumulate"
       d="m 93.332031,288.22461 c -0.896631,0 -1.677734,0.71231 -1.677734,1.63477 0,0.92042 0.757303,1.67773 1.677734,1.67773 0.296826,0 0.521485,0.22466 0.521485,0.52148 0,0.29684 -0.224657,0.51953 -0.521485,0.51953 H 91.78125 a 0.12045953,0.12045953 0 0 0 -0.121094,0.1211 v 0.91601 a 0.12045953,0.12045953 0 0 0 0.121094,0.11915 h 1.550781 c 0.920431,0 1.677735,-0.75535 1.677735,-1.67579 0,-0.92042 -0.757305,-1.67773 -1.677735,-1.67773 -0.296828,0 -0.521484,-0.22476 -0.521484,-0.52148 0,-0.15076 0.05085,-0.26413 0.138672,-0.34571 0.08782,-0.0816 0.217463,-0.13281 0.382812,-0.13281 h 1.558594 a 0.12045953,0.12045953 0 0 0 0.121094,-0.12109 v -0.91407 a 0.12045953,0.12045953 0 0 0 -0.121094,-0.12109 z m 0,0.24023 h 1.439453 v 0.67578 h -1.439453 c -0.215758,0 -0.40714,0.0693 -0.544922,0.19727 -0.137781,0.12798 -0.216796,0.31254 -0.216797,0.52149 0,0.42265 0.339162,0.76171 0.761719,0.76171 0.788394,0 1.435547,0.64911 1.435547,1.4375 0,0.78841 -0.647153,1.43555 -1.435547,1.43555 h -1.429687 v -0.67383 h 1.429687 c 0.422554,0 0.761719,-0.33915 0.761719,-0.76172 0,-0.42255 -0.339163,-0.76171 -0.761719,-0.76171 -0.788396,0 -1.4375,-0.64911 -1.4375,-1.4375 0,-0.78639 0.668136,-1.39454 1.4375,-1.39454 z"
       id="path1013"
       inkscape:connector-curvature="0" />
    <flowRoot
       xml:space="preserve"
       id="flowRoot846"
       style="fill:black;fill-opacity:1;stroke:none;font-family:sans-serif;font-style:normal;font-weight:normal;font-size:40px;line-height:1.25;letter-spacing:0px;word-spacing:0px"><flowRegion
         id="flowRegion848"><rect
           id="rect850"
           width="228.76193"
           height="56.339714"
           x="71.46447"
           y="52.566826" /></flowRegion><flowPara
         id="flowPara852"></flowPara></flowRoot>    <flowRoot
       xml:space="preserve"
       id="flowRoot854"
       style="font-style:normal;font-weight:normal;font-size:40px;line-height:1.25;font-family:sans-serif;letter-spacing:0px;word-spacing:0px;fill:#000000;fill-opacity:1;stroke:none"
       transform="matrix(0.26458333,0,0,0.26458333,0,265.584)"><flowRegion
         id="flowRegion856"><rect
           id="rect858"
           width="193.97499"
           height="50.667931"
           x="66.548927"
           y="58.99485" /></flowRegion><flowPara
         id="flowPara860"
         style="font-style:normal;font-variant:normal;font-weight:normal;font-stretch:normal;font-size:13.33333397px;font-family:sans-serif;-inkscape-font-specification:'sans-serif, Normal';font-variant-ligatures:normal;font-variant-caps:normal;font-variant-numeric:normal;font-feature-settings:normal;text-align:start;writing-mode:lr-tb;text-anchor:start" /></flowRoot>    <text
       xml:space="preserve"
       style="font-style:normal;font-variant:normal;font-weight:normal;font-stretch:normal;font-size:2.40417814px;line-height:1.25;font-family:sans-serif;-inkscape-font-specification:'sans-serif, Normal';font-variant-ligatures:normal;font-variant-caps:normal;font-variant-numeric:normal;font-feature-settings:normal;text-align:start;letter-spacing:0px;word-spacing:0px;writing-mode:lr-tb;text-anchor:start;fill:#cccccc;fill-opacity:1;stroke:none;stroke-width:0.15026113;"
       x="22.008154"
       y="280.51846"
       id="text864"><tspan
         sodipodi:role="line"
         id="tspan862"
         x="22.008154"
         y="280.51846"
         style="font-style:normal;font-variant:normal;font-weight:normal;font-stretch:normal;font-size:1.80313361px;font-family:sans-serif;-inkscape-font-specification:'sans-serif, Normal';font-variant-ligatures:normal;font-variant-caps:normal;font-variant-numeric:normal;font-feature-settings:normal;text-align:start;writing-mode:lr-tb;text-anchor:start;fill:#cccccc;fill-opacity:1;stroke-width:0.15026113;">wasserfest auf fast allen Flächen + CD/DVD · nachfüllbar</tspan></text>
    <text
       id="text870"
       y="283.21359"
       x="22.008154"
       style="font-style:normal;font-variant:normal;font-weight:normal;font-stretch:normal;font-size:2.40417814px;line-height:1.25;font-family:sans-serif;-inkscape-font-specification:'sans-serif, Normal';font-variant-ligatures:normal;font-variant-caps:normal;font-variant-numeric:normal;font-feature-settings:normal;text-align:start;letter-spacing:0px;word-spacing:0px;writing-mode:lr-tb;text-anchor:start;fill:#cccccc;fill-opacity:1;stroke:none;stroke-width:0.15026113;"
       xml:space="preserve"><tspan
         style="font-style:normal;font-variant:normal;font-weight:normal;font-stretch:normal;font-size:1.80313361px;font-family:sans-serif;-inkscape-font-specification:'sans-serif, Normal';font-variant-ligatures:normal;font-variant-caps:normal;font-variant-numeric:normal;font-feature-settings:normal;text-align:start;writing-mode:lr-tb;text-anchor:start;fill:#cccccc;fill-opacity:1;stroke-width:0.15026113;"
         y="283.21359"
         x="22.008154"
         id="tspan868"
         sodipodi:role="line">waterproof on most surfaces + CD/DVD · refillable</tspan></text>
    <text
       xml:space="preserve"
       style="font-style:normal;font-variant:normal;font-weight:normal;font-stretch:normal;font-size:2.40417814px;line-height:1.25;font-family:sans-serif;-inkscape-font-specification:'sans-serif, Normal';font-variant-ligatures:normal;font-variant-caps:normal;font-variant-numeric:normal;font-feature-settings:normal;text-align:start;letter-spacing:0px;word-spacing:0px;writing-mode:lr-tb;text-anchor:start;fill:#cccccc;fill-opacity:1;stroke:none;stroke-width:0.15026113;"
       x="22.008154"
       y="285.99982"
       id="text874"><tspan
         sodipodi:role="line"
         id="tspan872"
         x="22.008154"
         y="285.99982"
         style="font-style:normal;font-variant:normal;font-weight:normal;font-stretch:normal;font-size:1.80313361px;font-family:sans-serif;-inkscape-font-specification:'sans-serif, Normal';font-variant-ligatures:normal;font-variant-caps:normal;font-variant-numeric:normal;font-feature-settings:normal;text-align:start;writing-mode:lr-tb;text-anchor:start;fill:#cccccc;fill-opacity:1;stroke-width:0.15026113;">indélèbile sur la plupart des surfaces + CD/DVD · rechargeable</tspan></text>
    <g
       id="g1049"
       transform="translate(0,1.1096087)"
       style="fill:#cccccc">
      <rect
         ry="0"
         y="288.18127"
         x="22.1068"
         height="3.3590333"
         width="3.5370898"
         id="rect876"
         style="fill:#cccccc;fill-opacity:1;stroke:none;stroke-width:0.27344441;stroke-linejoin:round;stroke-miterlimit:4;stroke-dasharray:none;stroke-opacity:1" />
      <rect
         style="fill:#cccccc;fill-opacity:1;stroke:none;stroke-width:0.0864709;stroke-linejoin:round;stroke-miterlimit:4;stroke-dasharray:none;stroke-opacity:1"
         id="rect880"
         width="0.35371059"
         height="3.3590333"
         x="25.944023"
         y="288.18127"
         ry="0" />
      <rect
         ry="0"
         y="288.18127"
         x="26.456902"
         height="3.3590333"
         width="0.35371059"
         id="rect882"
         style="fill:#cccccc;fill-opacity:1;stroke:none;stroke-width:0.0864709;stroke-linejoin:round;stroke-miterlimit:4;stroke-dasharray:none;stroke-opacity:1" />
      <rect
         style="fill:#cccccc;fill-opacity:1;stroke:none;stroke-width:0.0864709;stroke-linejoin:round;stroke-miterlimit:4;stroke-dasharray:none;stroke-opacity:1"
         id="rect884"
         width="0.35371059"
         height="3.3590333"
         x="27.358858"
         y="288.18127"
         ry="0" />
      <rect
         ry="0"
         y="288.18127"
         x="27.924791"
         height="3.3590333"
         width="0.7604757"
         id="rect886"
         style="fill:#cccccc;fill-opacity:1;stroke:none;stroke-width:0.12679106;stroke-linejoin:round;stroke-miterlimit:4;stroke-dasharray:none;stroke-opacity:1" />
      <rect
         style="fill:#cccccc;fill-opacity:1;stroke:none;stroke-width:0.0864709;stroke-linejoin:round;stroke-miterlimit:4;stroke-dasharray:none;stroke-opacity:1"
         id="rect888"
         width="0.35371056"
         height="3.3590333"
         x="29.304256"
         y="288.18127"
         ry="0" />
      <rect
         ry="0"
         y="288.18127"
         x="30.330011"
         height="3.3590333"
         width="0.35371056"
         id="rect890"
         style="fill:#cccccc;fill-opacity:1;stroke:none;stroke-width:0.0864709;stroke-linejoin:round;stroke-miterlimit:4;stroke-dasharray:none;stroke-opacity:1" />
      <rect
         style="fill:#cccccc;fill-opacity:1;stroke:none;stroke-width:0.0864709;stroke-linejoin:round;stroke-miterlimit:4;stroke-dasharray:none;stroke-opacity:1"
         id="rect896"
         width="0.35371056"
         height="3.3590333"
         x="31.426508"
         y="288.18127"
         ry="0" />
      <rect
         ry="0"
         y="288.18127"
         x="32.576061"
         height="3.3590333"
         width="0.35371056"
         id="rect898"
         style="fill:#cccccc;fill-opacity:1;stroke:none;stroke-width:0.0864709;stroke-linejoin:round;stroke-miterlimit:4;stroke-dasharray:none;stroke-opacity:1" />
      <rect
         style="fill:#cccccc;fill-opacity:1;stroke:none;stroke-width:0.0864709;stroke-linejoin:round;stroke-miterlimit:4;stroke-dasharray:none;stroke-opacity:1"
         id="rect900"
         width="0.35371056"
         height="3.3590333"
         x="33.071255"
         y="288.18127"
         ry="0" />
      <rect
         ry="0"
         y="288.18127"
         x="33.51339"
         height="3.3590333"
         width="0.35371056"
         id="rect902"
         style="fill:#cccccc;fill-opacity:1;stroke:none;stroke-width:0.0864709;stroke-linejoin:round;stroke-miterlimit:4;stroke-dasharray:none;stroke-opacity:1" />
      <rect
         style="fill:#cccccc;fill-opacity:1;stroke:none;stroke-width:0.06114431;stroke-linejoin:round;stroke-miterlimit:4;stroke-dasharray:none;stroke-opacity:1"
         id="rect904"
         width="0.17685616"
         height="3.3590333"
         x="34.097008"
         y="288.18127"
         ry="0" />
      <rect
         ry="0"
         y="288.18127"
         x="34.786739"
         height="3.3590333"
         width="0.84890288"
         id="rect906"
         style="fill:#cccccc;fill-opacity:1;stroke:none;stroke-width:0.13395995;stroke-linejoin:round;stroke-miterlimit:4;stroke-dasharray:none;stroke-opacity:1" />
      <rect
         style="fill:#cccccc;fill-opacity:1;stroke:none;stroke-width:0.0864709;stroke-linejoin:round;stroke-miterlimit:4;stroke-dasharray:none;stroke-opacity:1"
         id="rect908"
         width="0.35371056"
         height="3.3590333"
         x="35.759441"
         y="288.18127"
         ry="0" />
      <rect
         ry="0"
         y="288.18127"
         x="36.908997"
         height="3.3590333"
         width="0.35371056"
         id="rect910"
         style="fill:#cccccc;fill-opacity:1;stroke:none;stroke-width:0.0864709;stroke-linejoin:round;stroke-miterlimit:4;stroke-dasharray:none;stroke-opacity:1" />
      <rect
         style="fill:#cccccc;fill-opacity:1;stroke:none;stroke-width:0.0864709;stroke-linejoin:round;stroke-miterlimit:4;stroke-dasharray:none;stroke-opacity:1"
         id="rect912"
         width="0.35371056"
         height="3.3590333"
         x="37.421875"
         y="288.18127"
         ry="0" />
      <rect
         ry="0"
         y="288.18127"
         x="37.881695"
         height="3.3590333"
         width="0.1945416"
         id="rect914"
         style="fill:#cccccc;fill-opacity:1;stroke:none;stroke-width:0.06412867;stroke-linejoin:round;stroke-miterlimit:4;stroke-dasharray:none;stroke-opacity:1" />
      <rect
         ry="0"
         y="288.18127"
         x="38.235405"
         height="3.3590333"
         width="0.35371056"
         id="rect916"
         style="fill:#cccccc;fill-opacity:1;stroke:none;stroke-width:0.0864709;stroke-linejoin:round;stroke-miterlimit:4;stroke-dasharray:none;stroke-opacity:1" />
      <rect
         style="fill:#cccccc;fill-opacity:1;stroke:none;stroke-width:0.12228817;stroke-linejoin:round;stroke-miterlimit:4;stroke-dasharray:none;stroke-opacity:1"
         id="rect918"
         width="0.7074194"
         height="3.3590333"
         x="38.819023"
         y="288.18127"
         ry="0" />
      <rect
         ry="0"
         y="288.18127"
         x="39.667923"
         height="3.3590333"
         width="0.19454163"
         id="rect922"
         style="fill:#cccccc;fill-opacity:1;stroke:none;stroke-width:0.06412867;stroke-linejoin:round;stroke-miterlimit:4;stroke-dasharray:none;stroke-opacity:1" />
      <rect
         ry="0"
         y="288.18127"
         x="40.021633"
         height="3.3590333"
         width="0.7074194"
         id="rect924"
         style="fill:#cccccc;fill-opacity:1;stroke:none;stroke-width:0.12228817;stroke-linejoin:round;stroke-miterlimit:4;stroke-dasharray:none;stroke-opacity:1" />
      <rect
         style="fill:#cccccc;fill-opacity:1;stroke:none;stroke-width:0.0886063;stroke-linejoin:round;stroke-miterlimit:4;stroke-dasharray:none;stroke-opacity:1"
         id="rect926"
         width="0.37139603"
         height="3.3590333"
         x="40.923592"
         y="288.18127"
         ry="0" />
      <rect
         ry="0"
         y="288.18127"
         x="41.4011"
         height="3.3590333"
         width="0.22991252"
         id="rect928"
         style="fill:#cccccc;fill-opacity:1;stroke:none;stroke-width:0.06971516;stroke-linejoin:round;stroke-miterlimit:4;stroke-dasharray:none;stroke-opacity:1" />
      <rect
         ry="0"
         y="288.18127"
         x="42.037773"
         height="3.3590333"
         width="0.37139603"
         id="rect930"
         style="fill:#cccccc;fill-opacity:1;stroke:none;stroke-width:0.0886063;stroke-linejoin:round;stroke-miterlimit:4;stroke-dasharray:none;stroke-opacity:1" />
      <rect
         style="fill:#cccccc;fill-opacity:1;stroke:none;stroke-width:0.14696157;stroke-linejoin:round;stroke-miterlimit:4;stroke-dasharray:none;stroke-opacity:1"
         id="rect934"
         width="1.0216818"
         height="3.3590333"
         x="42.638039"
         y="288.18127"
         ry="0" />
      <rect
         ry="0"
         y="288.18127"
         x="44.338787"
         height="3.3590333"
         width="1.0216818"
         id="rect936"
         style="fill:#cccccc;fill-opacity:1;stroke:none;stroke-width:0.14696157;stroke-linejoin:round;stroke-miterlimit:4;stroke-dasharray:none;stroke-opacity:1" />
      <rect
         style="fill:#cccccc;fill-opacity:1;stroke:none;stroke-width:0.08242356;stroke-linejoin:round;stroke-miterlimit:4;stroke-dasharray:none;stroke-opacity:1"
         id="rect938"
         width="0.32137409"
         height="3.3590333"
         x="45.589336"
         y="288.18127"
         ry="0" />
      <rect
         ry="0"
         y="288.18127"
         x="46.13958"
         height="3.3590333"
         width="0.15058838"
         id="rect940"
         style="fill:#cccccc;fill-opacity:1;stroke:none;stroke-width:0.05642112;stroke-linejoin:round;stroke-miterlimit:4;stroke-dasharray:none;stroke-opacity:1" />
      <rect
         ry="0"
         y="288.18127"
         x="46.385181"
         height="3.3590333"
         width="0.32137409"
         id="rect942"
         style="fill:#cccccc;fill-opacity:1;stroke:none;stroke-width:0.08242356;stroke-linejoin:round;stroke-miterlimit:4;stroke-dasharray:none;stroke-opacity:1" />
      <rect
         style="fill:#cccccc;fill-opacity:1;stroke:none;stroke-width:0.08242356;stroke-linejoin:round;stroke-miterlimit:4;stroke-dasharray:none;stroke-opacity:1"
         id="rect944"
         width="0.32137409"
         height="3.3590333"
         x="47.269455"
         y="288.18127"
         ry="0" />
      <rect
         ry="0"
         y="288.18127"
         x="47.888447"
         height="3.3590333"
         width="0.49822849"
         id="rect946"
         style="fill:#cccccc;fill-opacity:1;stroke:none;stroke-width:0.10262667;stroke-linejoin:round;stroke-miterlimit:4;stroke-dasharray:none;stroke-opacity:1" />
      <rect
         style="fill:#cccccc;fill-opacity:1;stroke:none;stroke-width:0.13138376;stroke-linejoin:round;stroke-miterlimit:4;stroke-dasharray:none;stroke-opacity:1"
         id="rect948"
         width="0.81656641"
         height="3.3590333"
         x="48.560493"
         y="288.20016"
         ry="0" />
      <rect
         ry="0"
         y="288.20016"
         x="49.533192"
         height="3.3590333"
         width="1.2587024"
         id="rect950"
         style="fill:#cccccc;fill-opacity:1;stroke:none;stroke-width:0.16312009;stroke-linejoin:round;stroke-miterlimit:4;stroke-dasharray:none;stroke-opacity:1" />
      <rect
         style="fill:#cccccc;fill-opacity:1;stroke:none;stroke-width:0.07531313;stroke-linejoin:round;stroke-miterlimit:4;stroke-dasharray:none;stroke-opacity:1"
         id="rect952"
         width="0.26831776"
         height="3.3590333"
         x="51.071823"
         y="288.20016"
         ry="0" />
      <rect
         ry="0"
         y="288.20016"
         x="51.814613"
         height="3.3590333"
         width="0.26831776"
         id="rect954"
         style="fill:#cccccc;fill-opacity:1;stroke:none;stroke-width:0.07531313;stroke-linejoin:round;stroke-miterlimit:4;stroke-dasharray:none;stroke-opacity:1" />
      <rect
         style="fill:#cccccc;fill-opacity:1;stroke:none;stroke-width:0.14747204;stroke-linejoin:round;stroke-miterlimit:4;stroke-dasharray:none;stroke-opacity:1"
         id="rect956"
         width="1.0287917"
         height="3.3590333"
         x="52.168324"
         y="288.20016"
         ry="0" />
      <rect
         ry="0"
         y="288.20016"
         x="53.388618"
         height="3.3590333"
         width="1.0287917"
         id="rect958"
         style="fill:#cccccc;fill-opacity:1;stroke:none;stroke-width:0.14747204;stroke-linejoin:round;stroke-miterlimit:4;stroke-dasharray:none;stroke-opacity:1" />
      <rect
         style="fill:#cccccc;fill-opacity:1;stroke:none;stroke-width:0.10795281;stroke-linejoin:round;stroke-miterlimit:4;stroke-dasharray:none;stroke-opacity:1"
         id="rect960"
         width="0.55128479"
         height="3.3590333"
         x="54.555859"
         y="288.20016"
         ry="0" />
      <rect
         ry="0"
         y="288.20016"
         x="55.882267"
         height="3.3590333"
         width="0.55128479"
         id="rect962"
         style="fill:#cccccc;fill-opacity:1;stroke:none;stroke-width:0.10795281;stroke-linejoin:round;stroke-miterlimit:4;stroke-dasharray:none;stroke-opacity:1" />
      <rect
         style="fill:#cccccc;fill-opacity:1;stroke:none;stroke-width:0.06462686;stroke-linejoin:round;stroke-miterlimit:4;stroke-dasharray:none;stroke-opacity:1"
         id="rect964"
         width="0.19757599"
         height="3.3590333"
         x="57.049507"
         y="288.18127"
         ry="0" />
      <rect
         ry="0"
         y="288.18127"
         x="57.739239"
         height="3.3590333"
         width="0.67508286"
         id="rect966"
         style="fill:#cccccc;fill-opacity:1;stroke:none;stroke-width:0.11946055;stroke-linejoin:round;stroke-miterlimit:4;stroke-dasharray:none;stroke-opacity:1" />
      <rect
         style="fill:#cccccc;fill-opacity:1;stroke:none;stroke-width:0.11946055;stroke-linejoin:round;stroke-miterlimit:4;stroke-dasharray:none;stroke-opacity:1"
         id="rect968"
         width="0.67508286"
         height="3.3590333"
         x="58.588139"
         y="288.18127"
         ry="0" />
      <rect
         ry="0"
         y="288.18127"
         x="59.437038"
         height="3.3590333"
         width="0.32137406"
         id="rect970"
         style="fill:#cccccc;fill-opacity:1;stroke:none;stroke-width:0.08242356;stroke-linejoin:round;stroke-miterlimit:4;stroke-dasharray:none;stroke-opacity:1" />
      <rect
         style="fill:#cccccc;fill-opacity:1;stroke:none;stroke-width:0.08242356;stroke-linejoin:round;stroke-miterlimit:4;stroke-dasharray:none;stroke-opacity:1"
         id="rect972"
         width="0.32137406"
         height="3.3590333"
         x="59.843803"
         y="288.18127"
         ry="0" />
      <rect
         ry="0"
         y="288.18127"
         x="60.834187"
         height="3.3590333"
         width="0.32137406"
         id="rect974"
         style="fill:#cccccc;fill-opacity:1;stroke:none;stroke-width:0.08242356;stroke-linejoin:round;stroke-miterlimit:4;stroke-dasharray:none;stroke-opacity:1" />
      <rect
         style="fill:#cccccc;fill-opacity:1;stroke:none;stroke-width:0.08662441;stroke-linejoin:round;stroke-miterlimit:4;stroke-dasharray:none;stroke-opacity:1"
         id="rect976"
         width="0.35496747"
         height="3.3590333"
         x="61.276321"
         y="288.18127"
         ry="0" />
      <rect
         ry="0"
         y="288.18127"
         x="61.75383"
         height="3.3590333"
         width="1.230352"
         id="rect978"
         style="fill:#cccccc;fill-opacity:1;stroke:none;stroke-width:0.16127264;stroke-linejoin:round;stroke-miterlimit:4;stroke-dasharray:none;stroke-opacity:1" />
    </g>
    <g
       id="g1000"
       transform="matrix(0.86527601,0,0,0.86527601,10.859601,39.393415)"
       style="fill:#cccccc">
      <text
         xml:space="preserve"
         style="font-style:normal;font-variant:normal;font-weight:normal;font-stretch:normal;font-size:2.02908659px;line-height:1.25;font-family:sans-serif;-inkscape-font-specification:'sans-serif, Normal';font-variant-ligatures:normal;font-variant-caps:normal;font-variant-numeric:normal;font-feature-settings:normal;text-align:start;letter-spacing:0px;word-spacing:0px;writing-mode:lr-tb;text-anchor:start;fill:#cccccc;fill-opacity:1;stroke:none;stroke-width:0.12681791"
         x="71.696342"
         y="289.46991"
         id="text984"><tspan
           sodipodi:role="line"
           id="tspan982"
           x="71.696342"
           y="289.46991"
           style="font-style:normal;font-variant:normal;font-weight:normal;font-stretch:normal;font-size:1.52181494px;font-family:sans-serif;-inkscape-font-specification:'sans-serif, Normal';font-variant-ligatures:normal;font-variant-caps:normal;font-variant-numeric:normal;font-feature-settings:normal;text-align:start;writing-mode:lr-tb;text-anchor:start;fill:#cccccc;fill-opacity:1;stroke-width:0.12681791">MADE IN GERMANY</tspan></text>
      <text
         id="text988"
         y="291.30957"
         x="75.92968"
         style="font-style:normal;font-variant:normal;font-weight:normal;font-stretch:normal;font-size:2.02908659px;line-height:1.25;font-family:sans-serif;-inkscape-font-specification:'sans-serif, Normal';font-variant-ligatures:normal;font-variant-caps:normal;font-variant-numeric:normal;font-feature-settings:normal;text-align:start;letter-spacing:0px;word-spacing:0px;writing-mode:lr-tb;text-anchor:start;fill:#cccccc;fill-opacity:1;stroke:none;stroke-width:0.12681791"
         xml:space="preserve"><tspan
           style="font-style:normal;font-variant:normal;font-weight:normal;font-stretch:normal;font-size:1.52181494px;font-family:sans-serif;-inkscape-font-specification:'sans-serif, Normal';font-variant-ligatures:normal;font-variant-caps:normal;font-variant-numeric:normal;font-feature-settings:normal;text-align:start;writing-mode:lr-tb;text-anchor:start;fill:#cccccc;fill-opacity:1;stroke-width:0.12681791"
           y="291.30957"
           x="75.92968"
           id="tspan986"
           sodipodi:role="line">Art. Nr. 313-2</tspan></text>
      <text
         xml:space="preserve"
         style="font-style:normal;font-variant:normal;font-weight:normal;font-stretch:normal;font-size:2.02908659px;line-height:1.25;font-family:sans-serif;-inkscape-font-specification:'sans-serif, Normal';font-variant-ligatures:normal;font-variant-caps:normal;font-variant-numeric:normal;font-feature-settings:normal;text-align:start;letter-spacing:0px;word-spacing:0px;writing-mode:lr-tb;text-anchor:start;fill:#cccccc;fill-opacity:1;stroke:none;stroke-width:0.12681791"
         x="69.209213"
         y="293.1485"
         id="text992"><tspan
           sodipodi:role="line"
           id="tspan990"
           x="69.209213"
           y="293.1485"
           style="font-style:normal;font-variant:normal;font-weight:normal;font-stretch:normal;font-size:1.52181494px;font-family:sans-serif;-inkscape-font-specification:'sans-serif, Normal';font-variant-ligatures:normal;font-variant-caps:normal;font-variant-numeric:normal;font-feature-settings:normal;text-align:start;writing-mode:lr-tb;text-anchor:start;fill:#cccccc;fill-opacity:1;stroke-width:0.12681791">EAN 40 07817 308646</tspan></text>
    </g>
  </g>
</svg>
